#!OML:ASF X:\für Bonn\!DataBase\2005_08_12_Daniel\c3d\Daniel.ASF
:FULLY-SPECIFIED
:DEGREES
76
root 0.90566 16.8694 1.35582 171.439 -2.12979 -179.219
lowerback 42.8798 0.638582 5.96693
upperback 12.2536 -1.9252 -1.57894
thorax -6.5815 -2.79709 -3.73432
lowerneck 5.88444 0.0611629 -3.9927
upperneck 12.2327 -1.46107 4.62615
head 2.99105 -1.15306 2.1795
rclavicle 1.19271e-015 2.38542e-015
rhumerus -13.3283 18.8702 -87.4753
rradius 68.521
rwrist -45.3394
rhand -18.591 12.2416
rfingers 7.12502
rthumb 7.69993 -17.5982
lclavicle 1.19271e-015 2.38542e-015
lhumerus -28.8171 25.3487 80.5685
lradius 33.4557
lwrist -17.7735
lhand -11.1531 -7.4007
lfingers 7.12502
lthumb 14.873 22.0454
rfemur -18.9369 -3.31723 18.9897
rtibia 43.6316
rfoot -17.6401 1.66444
rtoes -11.4001
lfemur -20.7675 1.84968 -15.3896
ltibia 52.0799
lfoot -22.5544 1.32145
ltoes -11.8878
77
root 0.891155 16.8135 1.36796 171.511 -2.19743 -179.241
lowerback 43.5045 0.677961 6.03776
upperback 12.375 -1.94304 -1.56758
thorax -6.61531 -2.84868 -3.73284
lowerneck 6.02941 -0.0574709 -3.93553
upperneck 11.8185 -1.57576 4.71731
head 2.82987 -1.19149 2.19637
rclavicle -4.17448e-015 6.95746e-015
rhumerus -12.5667 18.7909 -86.989
rradius 68.2175
rwrist -45.0431
rhand -18.8123 12.3959
rfingers 7.12502
rthumb 7.48635 -17.4516
lclavicle -4.17448e-015 6.95746e-015
lhumerus -28.5921 24.7276 80.8583
lradius 33.8666
lwrist -17.3082
lhand -11.1335 -7.38826
lfingers 7.12502
lthumb 14.8919 22.0565
rfemur -19.7793 -3.69659 18.8538
rtibia 44.8656
rfoot -18.0198 2.1064
rtoes -11.354
lfemur -21.5023 2.13028 -15.4125
ltibia 53.1044
lfoot -22.897 0.898069
ltoes -11.5702
78
root 0.876152 16.7534 1.38024 171.584 -2.28816 -179.279
lowerback 44.1076 0.706501 6.10439
upperback 12.4984 -1.9753 -1.54696
thorax -6.63767 -2.90674 -3.71407
lowerneck 6.18687 -0.164695 -3.91953
upperneck 11.3789 -1.67254 4.79875
head 2.65863 -1.22325 2.21779
rclavicle -7.15625e-015 -3.06128e-014
rhumerus -11.7737 18.7474 -86.4688
rradius 67.8759
rwrist -44.757
rhand -19.0085 12.4803
rfingers 7.12502
rthumb 7.29695 -17.3739
lclavicle -7.15625e-015 -3.06128e-014
lhumerus -28.3806 24.2402 81.1423
lradius 34.3062
lwrist -16.9797
lhand -11.1545 -7.3775
lfingers 7.12502
lthumb 14.8717 22.0687
rfemur -20.6397 -4.10131 18.7011
rtibia 46.139
rfoot -18.4194 2.54402
rtoes -11.4273
lfemur -22.2889 2.38889 -15.4675
ltibia 54.1884
lfoot -23.2641 0.508871
ltoes -11.3911
79
root 0.862144 16.6892 1.39147 171.631 -2.39624 -179.321
lowerback 44.746 0.739788 6.16312
upperback 12.6094 -2.00176 -1.51477
thorax -6.678 -2.96332 -3.67941
lowerneck 6.19226 -0.286542 -3.89683
upperneck 11.0803 -1.79692 4.89278
head 2.56454 -1.2689 2.24328
rclavicle 1.72943e-014 -7.95139e-015
rhumerus -10.9944 18.7016 -85.9116
rradius 67.5533
rwrist -44.5105
rhand -19.1397 12.4893
rfingers 7.12502
rthumb 7.17027 -17.3693
lclavicle 1.72943e-014 -7.95139e-015
lhumerus -28.1693 23.7576 81.4446
lradius 34.7857
lwrist -16.6571
lhand -11.1347 -7.30352
lfingers 7.12502
lthumb 14.8907 22.1413
rfemur -21.4976 -4.46817 18.5379
rtibia 47.4558
rfoot -18.7961 2.95058
rtoes -11.353
lfemur -23.0611 2.62611 -15.5285
ltibia 55.3129
lfoot -23.645 0.114609
ltoes -11.0652
80
root 0.848424 16.6204 1.402 171.679 -2.51338 -179.341
lowerback 45.3758 0.756711 6.27811
upperback 12.7073 -2.01723 -1.5005
thorax -6.72554 -3.0103 -3.69717
lowerneck 6.20446 -0.42316 -3.82231
upperneck 10.7694 -1.93791 4.98299
head 2.46561 -1.32131 2.25811
rclavicle -5.76476e-015 1.59028e-015
rhumerus -10.2167 18.5931 -85.3914
rradius 67.2075
rwrist -44.2531
rhand -19.2814 12.3483
rfingers 7.12502
rthumb 7.0335 -17.5148
lclavicle -5.76476e-015 1.59028e-015
lhumerus -27.9666 23.2312 81.6868
lradius 35.2647
lwrist -16.3533
lhand -11.1231 -7.2513
lfingers 7.12502
lthumb 14.9019 22.1927
rfemur -22.3826 -4.87172 18.4048
rtibia 48.814
rfoot -19.171 3.35262
rtoes -11.2152
lfemur -23.8671 2.83953 -15.5605
ltibia 56.4803
lfoot -24.0367 -0.276244
ltoes -10.7634
81
root 0.83495 16.5484 1.41252 171.714 -2.64123 -179.361
lowerback 46.0256 0.775764 6.37252
upperback 12.8001 -2.03669 -1.45161
thorax -6.77822 -3.06234 -3.66437
lowerneck 6.08513 -0.561925 -3.79064
upperneck 10.5514 -2.08295 5.04955
head 2.42182 -1.37677 2.27309
rclavicle 1.19271e-014 9.93923e-015
rhumerus -9.44909 18.5523 -84.7846
rradius 66.8985
rwrist -44.0529
rhand -19.3854 12.1629
rfingers 7.12502
rthumb 6.93315 -17.7036
lclavicle 1.19271e-014 9.93923e-015
lhumerus -27.7325 22.8187 81.9719
lradius 35.7164
lwrist -16.111
lhand -11.1994 -7.19438
lfingers 7.12502
lthumb 14.8284 22.255
rfemur -23.2631 -5.23892 18.2793
rtibia 50.1991
rfoot -19.5597 3.69234
rtoes -11.2426
lfemur -24.6832 3.02967 -15.6013
ltibia 57.6871
lfoot -24.4619 -0.652336
ltoes -10.523
82
root 0.822379 16.4731 1.422 171.75 -2.79798 -179.413
lowerback 46.6888 0.778445 6.45549
upperback 12.8671 -2.07103 -1.42381
thorax -6.86157 -3.11778 -3.64051
lowerneck 5.89682 -0.715034 -3.67549
upperneck 10.4297 -2.24721 5.04835
head 2.42075 -1.44111 2.25013
rclavicle 7.7526e-015 -2.18663e-014
rhumerus -8.68598 18.4771 -84.2181
rradius 66.5583
rwrist -43.8419
rhand -19.4427 11.9058
rfingers 7.12502
rthumb 6.87782 -17.9625
lclavicle 7.7526e-015 -2.18663e-014
lhumerus -27.5375 22.4405 82.1918
lradius 36.1798
lwrist -15.8905
lhand -11.2505 -7.22693
lfingers 7.12502
lthumb 14.7792 22.2261
rfemur -24.1728 -5.64144 18.1139
rtibia 51.6229
rfoot -19.9546 4.03812
rtoes -11.1839
lfemur -25.5094 3.18949 -15.6819
ltibia 58.9225
lfoot -24.8897 -1.00854
ltoes -10.2022
83
root 0.810254 16.3951 1.43094 171.762 -2.95517 -179.451
lowerback 47.3706 0.769756 6.57291
upperback 12.927 -2.10205 -1.40519
thorax -6.95233 -3.17082 -3.64419
lowerneck 5.72289 -0.872047 -3.58309
upperneck 10.3217 -2.42597 5.09559
head 2.42376 -1.51398 2.24745
rclavicle 9.74045e-015 3.97569e-016
rhumerus -7.93753 18.442 -83.6058
rradius 66.226
rwrist -43.6631
rhand -19.5241 11.5576
rfingers 7.12502
rthumb 6.7992 -18.3132
lclavicle 9.74045e-015 3.97569e-016
lhumerus -27.3522 22.01 82.3958
lradius 36.6888
lwrist -15.6113
lhand -11.292 -7.2049
lfingers 7.12502
lthumb 14.7391 22.2511
rfemur -25.0638 -6.01753 17.9643
rtibia 53.0704
rfoot -20.3589 4.35462
rtoes -11.0114
lfemur -26.3373 3.34548 -15.7452
ltibia 60.1951
lfoot -25.3467 -1.37751
ltoes -10.105
84
root 0.799425 16.3129 1.43886 171.787 -3.12217 -179.491
lowerback 48.9937 0.670629 6.7124
upperback 11.9883 -2.10576 -1.47223
thorax -7.01549 -3.20967 -3.5728
lowerneck 5.65773 -1.02154 -3.51477
upperneck 10.1437 -2.59315 5.1227
head 2.38363 -1.58405 2.24246
rclavicle -3.18055e-015 -1.78906e-015
rhumerus -7.14328 18.4064 -82.9532
rradius 65.8303
rwrist -43.516
rhand -19.5382 11.1937
rfingers 7.12502
rthumb 6.78562 -18.6776
lclavicle -3.18055e-015 -1.78906e-015
lhumerus -27.1746 21.6119 82.6184
lradius 37.1883
lwrist -15.3288
lhand -11.3928 -7.20276
lfingers 7.12502
lthumb 14.6421 22.2603
rfemur -26.0016 -6.39268 17.8166
rtibia 54.5665
rfoot -20.7797 4.65834
rtoes -10.917
lfemur -27.2006 3.5054 -15.8153
ltibia 61.4973
lfoot -25.7935 -1.73171
ltoes -9.85944
85
root 0.789308 16.2248 1.446 171.773 -3.28765 -179.53
lowerback 49.6794 0.664921 6.84841
upperback 12.0218 -2.11732 -1.44599
thorax -7.06883 -3.25424 -3.57946
lowerneck 5.61873 -1.19196 -3.39779
upperneck 9.98984 -2.79274 5.14678
head 2.34756 -1.67049 2.22771
rclavicle -5.26779e-015 -4.37326e-015
rhumerus -6.34554 18.3573 -82.2677
rradius 65.4391
rwrist -43.4081
rhand -19.5733 10.7897
rfingers 7.12502
rthumb 6.75172 -19.0827
lclavicle -5.26779e-015 -4.37326e-015
lhumerus -26.9536 21.1814 82.8166
lradius 37.6722
lwrist -14.9428
lhand -11.4933 -7.24954
lfingers 7.12502
lthumb 14.5452 22.2205
rfemur -26.9164 -6.76101 17.6683
rtibia 56.1057
rfoot -21.2108 4.96212
rtoes -10.7568
lfemur -28.0397 3.68369 -15.8742
ltibia 62.8426
lfoot -26.2495 -2.09007
ltoes -9.70705
